HIERARCHY
ROOT SpineBase
{
  OFFSET 0.000000 0.000000 0.000000
  CHANNELS 6 Xposition Yposition Zposition Zrotation Xrotation Yrotation
  JOINT SpineMid
  {
    OFFSET 0.000000 28.329175 0.000000
    CHANNELS 3 Zrotation Xrotation Yrotation
    JOINT SpineShoulder
    {
      OFFSET 0.170515 21.008255 -0.568818
      CHANNELS 3 Zrotation Xrotation Yrotation
      JOINT Neck
      {
        OFFSET 0.084924 6.929295 -0.461234
        CHANNELS 3 Zrotation Xrotation Yrotation
        JOINT Head
        {
          OFFSET -2.330050 12.308744 0.817733
          CHANNELS 3 Zrotation Xrotation Yrotation
          End Site
          {
            OFFSET 0 0 0
          }
        }
      }
      JOINT ShoulderLeft
      {
        OFFSET -13.328750 -5.641882 5.315124
        CHANNELS 3 Zrotation Xrotation Yrotation
        JOINT ElbowLeft
        {
          OFFSET -1.882330 -19.772285 1.826618
          CHANNELS 3 Zrotation Xrotation Yrotation
          JOINT WristLeft
          {
            OFFSET -1.071546 -19.895384 1.496649
            CHANNELS 3 Zrotation Xrotation Yrotation
            JOINT HandLeft
            {
              OFFSET 1.076847 -5.346252 -3.007066
              CHANNELS 3 Zrotation Xrotation Yrotation
              JOINT HandTipLeft
              {
                OFFSET -0.744807 -5.861458 1.263355
                CHANNELS 3 Zrotation Xrotation Yrotation
                End Site
                {
                  OFFSET 0 0 0
                }
              }
              JOINT ThumbLeft
              {
                OFFSET -2.050154 0.413384 3.797048
                CHANNELS 3 Zrotation Xrotation Yrotation
                End Site
                {
                  OFFSET 0 0 0
                }
              }
            }
          }
        }
      }
      JOINT ShoulderRight
      {
        OFFSET 8.293631 -4.525767 -12.189497
        CHANNELS 3 Zrotation Xrotation Yrotation
        JOINT ElbowRight
        {
          OFFSET 1.682077 -19.990914 -3.565371
          CHANNELS 3 Zrotation Xrotation Yrotation
          JOINT WristRight
          {
            OFFSET -2.788003 -19.222102 -6.318248
            CHANNELS 3 Zrotation Xrotation Yrotation
            JOINT HandRight
            {
              OFFSET -4.256313 -8.514770 -2.648792
              CHANNELS 3 Zrotation Xrotation Yrotation
              JOINT HandTipRight
              {
                OFFSET -2.077311 -5.067148 -0.397845
                CHANNELS 3 Zrotation Xrotation Yrotation
                End Site
                {
                  OFFSET 0 0 0
                }
              }
              JOINT ThumbRight
              {
                OFFSET -0.051594 0.946013 -4.161207
                CHANNELS 3 Zrotation Xrotation Yrotation
                End Site
                {
                  OFFSET 0 0 0
                }
              }
            }
          }
        }
      }
    }
  }
  JOINT HipLeft
  {
    OFFSET -5.202371 -0.080113 0.491851
    CHANNELS 3 Zrotation Xrotation Yrotation
    JOINT KneeLeft
    {
      OFFSET 1.554978 -27.168597 7.547700
      CHANNELS 3 Zrotation Xrotation Yrotation
      JOINT AnkleLeft
      {
        OFFSET 6.701434 -35.195145 8.162105
        CHANNELS 3 Zrotation Xrotation Yrotation
        JOINT FootLeft
        {
          OFFSET -2.765493 -6.051937 1.255434
          CHANNELS 3 Zrotation Xrotation Yrotation
          End Site
          {
            OFFSET 0 0 0
          }
        }
      }
    }
  }
  JOINT HipRight
  {
    OFFSET 4.613448 1.417133 -6.751714
    CHANNELS 3 Zrotation Xrotation Yrotation
    JOINT KneeRight
    {
      OFFSET 6.582831 -28.512082 3.758997
      CHANNELS 3 Zrotation Xrotation Yrotation
      JOINT AnkleRight
      {
        OFFSET 6.515968 -32.022242 9.409049
        CHANNELS 3 Zrotation Xrotation Yrotation
        JOINT FootRight
        {
          OFFSET -5.165589 -3.159608 -9.186082
          CHANNELS 3 Zrotation Xrotation Yrotation
          End Site
          {
            OFFSET 0 0 0
          }
        }
      }
    }
  }
}
MOTION
Frames: 8
Frame Time: 0.033333
34.264110 73.862080 363.957711 -0.000000 0.000000 36.425403 -0.000000 0.000000 -36.425403 -0.000000 0.000000 0.000000 -0.000000 0.000000 0.000000 0.000000 0.000000 0.000000 -0.000000 0.000000 0.000000 -0.000000 0.000000 0.000000 -0.000000 0.000000 0.000000 -0.000000 0.000000 0.000000 0.000000 0.000000 0.000000 0.000000 0.000000 0.000000 -0.000000 0.000000 0.000000 -0.000000 0.000000 0.000000 -0.000000 0.000000 0.000000 -0.000000 0.000000 0.000000 0.000000 0.000000 0.000000 0.000000 0.000000 0.000000 -0.000000 0.000000 -36.425403 -0.000000 0.000000 0.000000 -0.000000 0.000000 0.000000 0.000000 0.000000 0.000000 -0.000000 0.000000 -36.425403 -0.000000 0.000000 0.000000 -0.000000 0.000000 0.000000 0.000000 0.000000 0.000000
34.083942 73.750494 363.821072 -0.326765 0.240457 35.905294 0.123664 -0.386396 -35.904191 -0.000000 0.000000 0.000000 -0.000000 0.000000 0.000000 0.000000 0.000000 0.000000 0.857790 -0.055035 0.084954 -0.857707 0.056300 -0.084121 -3.590009 -3.699574 1.187521 6.768569 11.883048 -2.297704 0.000000 0.000000 0.000000 0.000000 0.000000 0.000000 -0.507888 0.854135 0.166079 0.505467 -0.855570 -0.158519 1.045974 -1.517867 0.451166 -2.175982 4.237608 -1.377694 0.000000 0.000000 0.000000 0.000000 0.000000 0.000000 0.123664 -0.386396 -35.904191 -0.000000 0.000000 0.000000 2.064186 2.765383 -0.897358 0.000000 0.000000 0.000000 0.123664 -0.386396 -35.904191 -0.000000 0.000000 0.000000 -0.000000 0.000000 0.000000 0.000000 0.000000 0.000000
33.908050 73.649977 363.701195 -0.622397 0.424407 35.455467 0.260826 -0.706729 -35.451554 -0.000000 0.000000 0.000000 0.034528 -0.969452 -0.185617 0.000000 0.000000 0.000000 1.542383 -0.017559 0.144589 -1.542334 0.021445 -0.144064 -6.203795 -6.168595 1.996635 13.941209 23.339407 -5.566617 0.000000 0.000000 0.000000 0.000000 0.000000 0.000000 -0.761089 1.551526 0.276091 0.006344 -2.461976 0.095099 2.909842 -1.870394 0.350250 -3.943673 7.708653 -2.345951 0.000000 0.000000 0.000000 0.000000 0.000000 0.000000 0.808860 -1.749104 -35.178748 -1.048468 0.536181 -0.256155 3.229034 6.390716 -2.494258 0.000000 0.000000 0.000000 0.260826 -0.706729 -35.451554 -0.000000 0.000000 0.000000 0.187751 0.355293 -1.120170 0.000000 0.000000 0.000000
33.736432 73.560530 363.598079 -0.887231 0.552255 35.072840 0.408869 -0.961759 -35.065133 -0.000000 0.000000 0.000000 0.022199 -1.224630 -0.233226 0.000000 0.000000 0.000000 2.053574 0.111622 0.177427 -1.204990 -0.091071 -0.116879 -9.054664 -7.755565 2.571882 21.523168 33.088701 -9.824538 0.000000 0.000000 0.000000 0.000000 0.000000 0.000000 -0.758971 2.094435 0.324609 -0.290853 -3.320460 0.171811 4.397772 -2.532295 0.335352 -5.392848 10.447810 -2.998604 0.000000 0.000000 0.000000 0.000000 0.000000 0.000000 1.342229 -2.386484 -34.635359 -1.577593 0.641497 -0.393671 3.582052 10.968502 -4.789375 0.000000 0.000000 0.000000 0.925747 -1.939255 -35.038502 -0.984357 0.503536 -0.009221 0.224217 0.442039 -1.364426 0.000000 0.000000 0.000000
33.569090 73.482153 363.511726 -1.121568 0.624349 34.755305 0.565690 -1.152266 -34.743506 -0.000000 0.000000 0.000000 -0.009236 -1.327102 -0.250922 0.000000 0.000000 0.000000 2.391499 0.331899 0.182853 -1.408659 -0.223378 -0.123416 -10.776427 -8.724934 3.136107 28.486274 39.586361 -14.211889 0.000000 0.000000 0.000000 0.000000 0.000000 0.000000 -0.500821 2.484134 0.308154 -0.784970 -3.931732 0.269375 5.899778 -2.999215 0.184836 -6.572503 12.486714 -3.397681 0.000000 0.000000 0.000000 0.000000 0.000000 0.000000 1.948876 -2.858001 -34.146066 -2.101824 0.634642 -0.537394 3.210280 16.588736 -7.758403 0.000000 0.000000 0.000000 1.345023 -2.359374 -34.671283 -1.327487 0.549283 -0.041979 0.221359 0.469510 -1.399751 0.000000 0.000000 0.000000
33.406024 73.414845 363.442135 -1.325679 0.640972 34.501673 0.729647 -1.279023 -34.486113 -0.000000 0.000000 0.000000 -0.059631 -1.277008 -0.238651 0.000000 0.000000 0.000000 2.556501 0.642898 0.161091 -1.513554 -0.406712 -0.114010 -12.147667 -9.134319 3.715543 33.150984 42.184371 -17.152298 0.000000 0.000000 0.000000 0.000000 0.000000 0.000000 0.014171 2.720633 0.225143 -1.475217 -4.296939 0.390152 7.411412 -3.265410 -0.107486 -7.500389 13.850285 -3.583575 0.000000 0.000000 0.000000 0.000000 0.000000 0.000000 2.618411 -3.161490 -33.714078 -2.615166 0.516262 -0.687062 2.214323 23.260771 -11.322426 0.000000 0.000000 0.000000 1.813644 -2.664196 -34.350193 -1.676225 0.531652 -0.090844 0.178987 0.437823 -1.226316 0.000000 0.000000 0.000000
33.220341 73.317042 363.360008 -1.572461 0.625373 34.217214 0.948923 -1.401197 -34.197028 -0.000000 0.000000 0.000000 0.057092 -0.991543 -0.191095 0.000000 0.000000 0.000000 2.602190 0.551282 0.175893 -1.705788 0.385858 -0.182358 -13.594186 -7.097173 5.276531 37.129811 41.811848 -19.170353 0.000000 0.000000 0.000000 0.000000 0.000000 0.000000 0.913158 2.953346 0.061825 -2.685007 -4.586961 0.592922 9.320194 -3.282022 -0.705971 -7.912369 12.958188 -2.983672 0.000000 0.000000 0.000000 0.000000 0.000000 0.000000 2.650779 -3.327633 -33.473699 -2.481420 0.667158 -0.638654 0.593605 32.919602 -16.464227 0.000000 0.000000 0.000000 2.370234 -2.956996 -33.986568 -2.047620 0.494922 -0.147565 -0.000000 0.000000 0.000000 0.000000 0.000000 0.000000
33.063656 73.273205 363.287253 -1.735755 0.592020 34.107746 0.483021 -0.841917 -34.121914 0.863815 -0.165328 0.025978 -0.000000 0.000000 0.000000 0.000000 0.000000 0.000000 2.075558 1.706421 -0.001616 -1.209190 0.583451 -0.110077 -12.249091 -5.531921 5.206563 25.318589 25.189719 -10.483424 0.000000 0.000000 0.000000 0.000000 0.000000 0.000000 2.042543 2.863668 -0.173347 -3.912884 -4.504672 0.805682 10.788131 -4.040381 -0.728009 -7.342996 14.397897 -3.607034 0.000000 0.000000 0.000000 0.000000 0.000000 0.000000 3.496048 -3.577278 -33.126779 -3.155723 0.461814 -0.840009 -1.003233 43.168225 -21.990819 0.000000 0.000000 0.000000 2.888719 -3.147897 -33.787013 -2.417893 0.407495 -0.217298 -1.070702 2.857174 -1.408681 0.000000 0.000000 0.000000
